solid
facet normal 0.0 0.0 1.0
 outer loop
  vertex 7.142857142857131 0.0 0.0
  vertex 5.163797026075432 5.266541385377959 0.0
  vertex 0.0 0.0 0.0
 endloop
endfacet
facet normal 0.0 0.0 1.0
 outer loop
  vertex 0.0 0.0 0.0
  vertex 5.163797026075432 5.266541385377959 0.0
  vertex 0.0 7.499999999999979 0.0
 endloop
endfacet
facet normal 0.0 0.0 1.0
 outer loop
  vertex 50.0 0.0 0.0
  vertex 44.54209983550056 5.546639612448441 0.0
  vertex 42.85714285714282 0.0 0.0
 endloop
endfacet
facet normal 0.0 0.0 1.0
 outer loop
  vertex 50.0 7.500000000000009 0.0
  vertex 44.54209983550056 5.546639612448441 0.0
  vertex 50.0 0.0 0.0
 endloop
endfacet
facet normal 0.0 0.0 1.0
 outer loop
  vertex 50.0 60.0 0.0
  vertex 44.87653646371217 54.85348279797074 0.0
  vertex 50.0 52.50000000000002 0.0
 endloop
endfacet
facet normal -0.0 0.0 1.0
 outer loop
  vertex 42.85714285714287 60.0 0.0
  vertex 44.87653646371217 54.85348279797074 0.0
  vertex 50.0 60.0 0.0
 endloop
endfacet
facet normal -0.0 0.0 1.0
 outer loop
  vertex 0.0 60.0 0.0
  vertex 5.136141524565161 54.75979718748897 0.0
  vertex 7.142857142857181 60.0 0.0
 endloop
endfacet
facet normal 0.0 0.0 1.0
 outer loop
  vertex 0.0 52.49999999999999 0.0
  vertex 5.136141524565161 54.75979718748897 0.0
  vertex 0.0 60.0 0.0
 endloop
endfacet
facet normal 0.0 0.0 1.0
 outer loop
  vertex 14.28571428571425 0.0 0.0
  vertex 11.016610877183558 6.459695058667144 0.0
  vertex 7.142857142857131 0.0 0.0
 endloop
endfacet
facet normal 0.0 0.0 1.0
 outer loop
  vertex 11.016610877183558 6.459695058667144 0.0
  vertex 5.163797026075432 5.266541385377959 0.0
  vertex 7.142857142857131 0.0 0.0
 endloop
endfacet
facet normal 0.0 0.0 1.0
 outer loop
  vertex 21.428571428571367 0.0 0.0
  vertex 17.883814697168347 4.907386507600901 0.0
  vertex 14.28571428571425 0.0 0.0
 endloop
endfacet
facet normal 0.0 -0.0 1.0
 outer loop
  vertex 14.28571428571425 0.0 0.0
  vertex 17.883814697168347 4.907386507600901 0.0
  vertex 11.016610877183558 6.459695058667144 0.0
 endloop
endfacet
facet normal 0.0 0.0 1.0
 outer loop
  vertex 28.571428571428484 0.0 0.0
  vertex 24.767844616846848 6.661905247766903 0.0
  vertex 21.428571428571367 0.0 0.0
 endloop
endfacet
facet normal 0.0 0.0 1.0
 outer loop
  vertex 24.767844616846848 6.661905247766903 0.0
  vertex 17.883814697168347 4.907386507600901 0.0
  vertex 21.428571428571367 0.0 0.0
 endloop
endfacet
facet normal 0.0 0.0 1.0
 outer loop
  vertex 35.71428571428564 0.0 0.0
  vertex 31.734152771905784 5.109666987168467 0.0
  vertex 28.571428571428484 0.0 0.0
 endloop
endfacet
facet normal 0.0 -0.0 1.0
 outer loop
  vertex 28.571428571428484 0.0 0.0
  vertex 31.734152771905784 5.109666987168467 0.0
  vertex 24.767844616846848 6.661905247766903 0.0
 endloop
endfacet
facet normal 0.0 0.0 1.0
 outer loop
  vertex 42.85714285714282 0.0 0.0
  vertex 38.13020974910776 6.955717742168996 0.0
  vertex 35.71428571428564 0.0 0.0
 endloop
endfacet
facet normal 0.0 0.0 1.0
 outer loop
  vertex 38.13020974910776 6.955717742168996 0.0
  vertex 31.734152771905784 5.109666987168467 0.0
  vertex 35.71428571428564 0.0 0.0
 endloop
endfacet
facet normal 0.0 -0.0 1.0
 outer loop
  vertex 42.85714285714282 0.0 0.0
  vertex 44.54209983550056 5.546639612448441 0.0
  vertex 38.13020974910776 6.955717742168996 0.0
 endloop
endfacet
facet normal 0.0 0.0 1.0
 outer loop
  vertex 50.0 15.000000000000014 0.0
  vertex 43.74602380276204 11.589100628240047 0.0
  vertex 50.0 7.500000000000009 0.0
 endloop
endfacet
facet normal 0.0 0.0 1.0
 outer loop
  vertex 43.74602380276204 11.589100628240047 0.0
  vertex 44.54209983550056 5.546639612448441 0.0
  vertex 50.0 7.500000000000009 0.0
 endloop
endfacet
facet normal 0.0 0.0 1.0
 outer loop
  vertex 50.0 22.500000000000043 0.0
  vertex 43.56822038657272 18.787935457719296 0.0
  vertex 50.0 15.000000000000014 0.0
 endloop
endfacet
facet normal 0.0 0.0 1.0
 outer loop
  vertex 50.0 15.000000000000014 0.0
  vertex 43.56822038657272 18.787935457719296 0.0
  vertex 43.74602380276204 11.589100628240047 0.0
 endloop
endfacet
facet normal 0.0 0.0 1.0
 outer loop
  vertex 50.0 30.000000000000078 0.0
  vertex 43.51851467137888 26.22721532192164 0.0
  vertex 50.0 22.500000000000043 0.0
 endloop
endfacet
facet normal 0.0 0.0 1.0
 outer loop
  vertex 43.51851467137888 26.22721532192164 0.0
  vertex 43.56822038657272 18.787935457719296 0.0
  vertex 50.0 22.500000000000043 0.0
 endloop
endfacet
facet normal 0.0 0.0 1.0
 outer loop
  vertex 50.0 37.50000000000007 0.0
  vertex 43.45585278110673 33.66476221873047 0.0
  vertex 50.0 30.000000000000078 0.0
 endloop
endfacet
facet normal 0.0 0.0 1.0
 outer loop
  vertex 50.0 30.000000000000078 0.0
  vertex 43.45585278110673 33.66476221873047 0.0
  vertex 43.51851467137888 26.22721532192164 0.0
 endloop
endfacet
facet normal 0.0 0.0 1.0
 outer loop
  vertex 50.0 45.00000000000004 0.0
  vertex 43.52011626487667 41.07967232217754 0.0
  vertex 50.0 37.50000000000007 0.0
 endloop
endfacet
facet normal 0.0 0.0 1.0
 outer loop
  vertex 43.52011626487667 41.07967232217754 0.0
  vertex 43.45585278110673 33.66476221873047 0.0
  vertex 50.0 37.50000000000007 0.0
 endloop
endfacet
facet normal 0.0 0.0 1.0
 outer loop
  vertex 50.0 52.50000000000002 0.0
  vertex 42.904240067602785 48.859271065307865 0.0
  vertex 50.0 45.00000000000004 0.0
 endloop
endfacet
facet normal 0.0 0.0 1.0
 outer loop
  vertex 50.0 45.00000000000004 0.0
  vertex 42.904240067602785 48.859271065307865 0.0
  vertex 43.52011626487667 41.07967232217754 0.0
 endloop
endfacet
facet normal 0.0 0.0 1.0
 outer loop
  vertex 50.0 52.50000000000002 0.0
  vertex 44.87653646371217 54.85348279797074 0.0
  vertex 42.904240067602785 48.859271065307865 0.0
 endloop
endfacet
facet normal -0.0 0.0 1.0
 outer loop
  vertex 35.71428571428575 60.0 0.0
  vertex 39.19435761671745 54.61344652156422 0.0
  vertex 42.85714285714287 60.0 0.0
 endloop
endfacet
facet normal 0.0 0.0 1.0
 outer loop
  vertex 39.19435761671745 54.61344652156422 0.0
  vertex 44.87653646371217 54.85348279797074 0.0
  vertex 42.85714285714287 60.0 0.0
 endloop
endfacet
facet normal -0.0 0.0 1.0
 outer loop
  vertex 28.571428571428633 60.0 0.0
  vertex 32.31608484778236 54.54118788567457 0.0
  vertex 35.71428571428575 60.0 0.0
 endloop
endfacet
facet normal 0.0 0.0 1.0
 outer loop
  vertex 35.71428571428575 60.0 0.0
  vertex 32.31608484778236 54.54118788567457 0.0
  vertex 39.19435761671745 54.61344652156422 0.0
 endloop
endfacet
facet normal -0.0 0.0 1.0
 outer loop
  vertex 21.428571428571516 60.0 0.0
  vertex 24.769572909770584 53.226677386317014 0.0
  vertex 28.571428571428633 60.0 0.0
 endloop
endfacet
facet normal 0.0 0.0 1.0
 outer loop
  vertex 24.769572909770584 53.226677386317014 0.0
  vertex 32.31608484778236 54.54118788567457 0.0
  vertex 28.571428571428633 60.0 0.0
 endloop
endfacet
facet normal -0.0 0.0 1.0
 outer loop
  vertex 14.285714285714363 60.0 0.0
  vertex 17.896577896581622 55.056732899160025 0.0
  vertex 21.428571428571516 60.0 0.0
 endloop
endfacet
facet normal 0.0 0.0 1.0
 outer loop
  vertex 21.428571428571516 60.0 0.0
  vertex 17.896577896581622 55.056732899160025 0.0
  vertex 24.769572909770584 53.226677386317014 0.0
 endloop
endfacet
facet normal -0.0 0.0 1.0
 outer loop
  vertex 7.142857142857181 60.0 0.0
  vertex 11.104454578574938 53.573928831304556 0.0
  vertex 14.285714285714363 60.0 0.0
 endloop
endfacet
facet normal 0.0 0.0 1.0
 outer loop
  vertex 11.104454578574938 53.573928831304556 0.0
  vertex 17.896577896581622 55.056732899160025 0.0
  vertex 14.285714285714363 60.0 0.0
 endloop
endfacet
facet normal 0.0 0.0 1.0
 outer loop
  vertex 7.142857142857181 60.0 0.0
  vertex 5.136141524565161 54.75979718748897 0.0
  vertex 11.104454578574938 53.573928831304556 0.0
 endloop
endfacet
facet normal 0.0 0.0 1.0
 outer loop
  vertex 0.0 44.999999999999986 0.0
  vertex 5.767458897742021 48.69774272734654 0.0
  vertex 0.0 52.49999999999999 0.0
 endloop
endfacet
facet normal 0.0 0.0 1.0
 outer loop
  vertex 5.767458897742021 48.69774272734654 0.0
  vertex 5.136141524565161 54.75979718748897 0.0
  vertex 0.0 52.49999999999999 0.0
 endloop
endfacet
facet normal 0.0 0.0 1.0
 outer loop
  vertex 0.0 37.49999999999996 0.0
  vertex 6.112894327678973 41.113098106028616 0.0
  vertex 0.0 44.999999999999986 0.0
 endloop
endfacet
facet normal -0.0 0.0 1.0
 outer loop
  vertex 0.0 44.999999999999986 0.0
  vertex 6.112894327678973 41.113098106028616 0.0
  vertex 5.767458897742021 48.69774272734654 0.0
 endloop
endfacet
facet normal 0.0 0.0 1.0
 outer loop
  vertex 0.0 29.999999999999922 0.0
  vertex 6.401396425621787 33.72236385161839 0.0
  vertex 0.0 37.49999999999996 0.0
 endloop
endfacet
facet normal 0.0 0.0 1.0
 outer loop
  vertex 6.401396425621787 33.72236385161839 0.0
  vertex 6.112894327678973 41.113098106028616 0.0
  vertex 0.0 37.49999999999996 0.0
 endloop
endfacet
facet normal 0.0 0.0 1.0
 outer loop
  vertex 0.0 22.49999999999993 0.0
  vertex 6.2745968566883725 26.228306295591054 0.0
  vertex 0.0 29.999999999999922 0.0
 endloop
endfacet
facet normal -0.0 0.0 1.0
 outer loop
  vertex 0.0 29.999999999999922 0.0
  vertex 6.2745968566883725 26.228306295591054 0.0
  vertex 6.401396425621787 33.72236385161839 0.0
 endloop
endfacet
facet normal 0.0 0.0 1.0
 outer loop
  vertex 0.0 14.999999999999957 0.0
  vertex 6.336846449444543 18.786866250129194 0.0
  vertex 0.0 22.49999999999993 0.0
 endloop
endfacet
facet normal 0.0 0.0 1.0
 outer loop
  vertex 6.336846449444543 18.786866250129194 0.0
  vertex 6.2745968566883725 26.228306295591054 0.0
  vertex 0.0 22.49999999999993 0.0
 endloop
endfacet
facet normal 0.0 0.0 1.0
 outer loop
  vertex 0.0 7.499999999999979 0.0
  vertex 5.784282778817698 11.34427927662474 0.0
  vertex 0.0 14.999999999999957 0.0
 endloop
endfacet
facet normal -0.0 0.0 1.0
 outer loop
  vertex 0.0 14.999999999999957 0.0
  vertex 5.784282778817698 11.34427927662474 0.0
  vertex 6.336846449444543 18.786866250129194 0.0
 endloop
endfacet
facet normal -0.0 0.0 1.0
 outer loop
  vertex 0.0 7.499999999999979 0.0
  vertex 5.163797026075432 5.266541385377959 0.0
  vertex 5.784282778817698 11.34427927662474 0.0
 endloop
endfacet
facet normal 0.0 0.0 1.0
 outer loop
  vertex 24.43150610078456 14.827534084302915 0.0
  vertex 17.920332277525713 11.415332231570474 0.0
  vertex 24.767844616846848 6.661905247766903 0.0
 endloop
endfacet
facet normal 0.0 -0.0 1.0
 outer loop
  vertex 24.767844616846848 6.661905247766903 0.0
  vertex 31.032187296900954 11.318989608903152 0.0
  vertex 24.43150610078456 14.827534084302915 0.0
 endloop
endfacet
facet normal 0.0 0.0 1.0
 outer loop
  vertex 17.920332277525713 11.415332231570474 0.0
  vertex 17.883814697168347 4.907386507600901 0.0
  vertex 24.767844616846848 6.661905247766903 0.0
 endloop
endfacet
facet normal -0.0 0.0 1.0
 outer loop
  vertex 24.767844616846848 6.661905247766903 0.0
  vertex 31.734152771905784 5.109666987168467 0.0
  vertex 31.032187296900954 11.318989608903152 0.0
 endloop
endfacet
facet normal 0.0 0.0 1.0
 outer loop
  vertex 24.769572909770584 53.226677386317014 0.0
  vertex 17.894576280276702 48.48305827817855 0.0
  vertex 24.334716081257145 44.87641556348136 0.0
 endloop
endfacet
facet normal 0.0 0.0 1.0
 outer loop
  vertex 24.334716081257145 44.87641556348136 0.0
  vertex 30.78022302334236 48.06834059766088 0.0
  vertex 24.769572909770584 53.226677386317014 0.0
 endloop
endfacet
facet normal 0.0 0.0 1.0
 outer loop
  vertex 24.769572909770584 53.226677386317014 0.0
  vertex 17.896577896581622 55.056732899160025 0.0
  vertex 17.894576280276702 48.48305827817855 0.0
 endloop
endfacet
facet normal 0.0 -0.0 1.0
 outer loop
  vertex 30.78022302334236 48.06834059766088 0.0
  vertex 32.31608484778236 54.54118788567457 0.0
  vertex 24.769572909770584 53.226677386317014 0.0
 endloop
endfacet
facet normal 0.0 0.0 1.0
 outer loop
  vertex 43.51851467137888 26.22721532192164 0.0
  vertex 37.132563965748375 22.43782721696946 0.0
  vertex 43.56822038657272 18.787935457719296 0.0
 endloop
endfacet
facet normal 0.0 0.0 1.0
 outer loop
  vertex 43.51851467137888 26.22721532192164 0.0
  vertex 37.05861649080758 29.903454509069974 0.0
  vertex 37.132563965748375 22.43782721696946 0.0
 endloop
endfacet
facet normal 0.0 0.0 1.0
 outer loop
  vertex 43.51851467137888 26.22721532192164 0.0
  vertex 43.45585278110673 33.66476221873047 0.0
  vertex 37.05861649080758 29.903454509069974 0.0
 endloop
endfacet
facet normal 0.0 -0.0 1.0
 outer loop
  vertex 6.401396425621787 33.72236385161839 0.0
  vertex 12.239284812960632 37.21509447234401 0.0
  vertex 6.112894327678973 41.113098106028616 0.0
 endloop
endfacet
facet normal 0.0 0.0 1.0
 outer loop
  vertex 6.2745968566883725 26.228306295591054 0.0
  vertex 12.129115512963132 29.879610706679788 0.0
  vertex 6.401396425621787 33.72236385161839 0.0
 endloop
endfacet
facet normal 0.0 -0.0 1.0
 outer loop
  vertex 12.129115512963132 29.879610706679788 0.0
  vertex 12.239284812960632 37.21509447234401 0.0
  vertex 6.401396425621787 33.72236385161839 0.0
 endloop
endfacet
facet normal 0.0 0.0 1.0
 outer loop
  vertex 43.52011626487667 41.07967232217754 0.0
  vertex 37.03134786834239 37.25134659387841 0.0
  vertex 43.45585278110673 33.66476221873047 0.0
 endloop
endfacet
facet normal 0.0 0.0 1.0
 outer loop
  vertex 36.91457078618236 44.269313856356874 0.0
  vertex 37.03134786834239 37.25134659387841 0.0
  vertex 43.52011626487667 41.07967232217754 0.0
 endloop
endfacet
facet normal 0.0 0.0 1.0
 outer loop
  vertex 43.52011626487667 41.07967232217754 0.0
  vertex 42.904240067602785 48.859271065307865 0.0
  vertex 36.91457078618236 44.269313856356874 0.0
 endloop
endfacet
facet normal 0.0 -0.0 1.0
 outer loop
  vertex 6.336846449444543 18.786866250129194 0.0
  vertex 12.071820170090739 22.433803441561885 0.0
  vertex 6.2745968566883725 26.228306295591054 0.0
 endloop
endfacet
facet normal 0.0 0.0 1.0
 outer loop
  vertex 5.784282778817698 11.34427927662474 0.0
  vertex 11.854119615660707 14.86592604038214 0.0
  vertex 6.336846449444543 18.786866250129194 0.0
 endloop
endfacet
facet normal 0.0 -0.0 1.0
 outer loop
  vertex 11.854119615660707 14.86592604038214 0.0
  vertex 12.071820170090739 22.433803441561885 0.0
  vertex 6.336846449444543 18.786866250129194 0.0
 endloop
endfacet
facet normal 0.0 0.0 1.0
 outer loop
  vertex 43.56822038657272 18.787935457719296 0.0
  vertex 37.25356527332531 15.082572576820695 0.0
  vertex 43.74602380276204 11.589100628240047 0.0
 endloop
endfacet
facet normal 0.0 0.0 1.0
 outer loop
  vertex 37.25356527332531 15.082572576820695 0.0
  vertex 38.13020974910776 6.955717742168996 0.0
  vertex 43.74602380276204 11.589100628240047 0.0
 endloop
endfacet
facet normal -0.0 0.0 1.0
 outer loop
  vertex 38.13020974910776 6.955717742168996 0.0
  vertex 44.54209983550056 5.546639612448441 0.0
  vertex 43.74602380276204 11.589100628240047 0.0
 endloop
endfacet
facet normal 0.0 -0.0 1.0
 outer loop
  vertex 6.112894327678973 41.113098106028616 0.0
  vertex 11.827677634824184 44.99652129978353 0.0
  vertex 5.767458897742021 48.69774272734654 0.0
 endloop
endfacet
facet normal -0.0 0.0 1.0
 outer loop
  vertex 5.767458897742021 48.69774272734654 0.0
  vertex 11.827677634824184 44.99652129978353 0.0
  vertex 11.104454578574938 53.573928831304556 0.0
 endloop
endfacet
facet normal 0.0 0.0 1.0
 outer loop
  vertex 11.104454578574938 53.573928831304556 0.0
  vertex 5.136141524565161 54.75979718748897 0.0
  vertex 5.767458897742021 48.69774272734654 0.0
 endloop
endfacet
facet normal 0.0 -0.0 1.0
 outer loop
  vertex 42.904240067602785 48.859271065307865 0.0
  vertex 44.87653646371217 54.85348279797074 0.0
  vertex 39.19435761671745 54.61344652156422 0.0
 endloop
endfacet
facet normal 0.0 0.0 1.0
 outer loop
  vertex 39.19435761671745 54.61344652156422 0.0
  vertex 36.262620286380596 49.998510315919006 0.0
  vertex 42.904240067602785 48.859271065307865 0.0
 endloop
endfacet
facet normal -0.0 0.0 1.0
 outer loop
  vertex 32.31608484778236 54.54118788567457 0.0
  vertex 36.262620286380596 49.998510315919006 0.0
  vertex 39.19435761671745 54.61344652156422 0.0
 endloop
endfacet
facet normal 0.0 0.0 1.0
 outer loop
  vertex 17.920332277525713 11.415332231570474 0.0
  vertex 11.854119615660707 14.86592604038214 0.0
  vertex 11.016610877183558 6.459695058667144 0.0
 endloop
endfacet
facet normal -0.0 0.0 1.0
 outer loop
  vertex 11.016610877183558 6.459695058667144 0.0
  vertex 17.883814697168347 4.907386507600901 0.0
  vertex 17.920332277525713 11.415332231570474 0.0
 endloop
endfacet
facet normal 0.0 -0.0 1.0
 outer loop
  vertex 11.016610877183558 6.459695058667144 0.0
  vertex 11.854119615660707 14.86592604038214 0.0
  vertex 5.784282778817698 11.34427927662474 0.0
 endloop
endfacet
facet normal 0.0 0.0 1.0
 outer loop
  vertex 5.784282778817698 11.34427927662474 0.0
  vertex 5.163797026075432 5.266541385377959 0.0
  vertex 11.016610877183558 6.459695058667144 0.0
 endloop
endfacet
facet normal 0.0 0.0 1.0
 outer loop
  vertex 37.132563965748375 22.43782721696946 0.0
  vertex 37.25356527332531 15.082572576820695 0.0
  vertex 43.56822038657272 18.787935457719296 0.0
 endloop
endfacet
facet normal 0.0 0.0 1.0
 outer loop
  vertex 37.05861649080758 29.903454509069974 0.0
  vertex 30.691858088333294 26.133354484595035 0.0
  vertex 37.132563965748375 22.43782721696946 0.0
 endloop
endfacet
facet normal 0.0 0.0 1.0
 outer loop
  vertex 30.691858088333294 26.133354484595035 0.0
  vertex 30.80802003441786 18.590555481240038 0.0
  vertex 37.132563965748375 22.43782721696946 0.0
 endloop
endfacet
facet normal -0.0 0.0 1.0
 outer loop
  vertex 30.80802003441786 18.590555481240038 0.0
  vertex 37.25356527332531 15.082572576820695 0.0
  vertex 37.132563965748375 22.43782721696946 0.0
 endloop
endfacet
facet normal 0.0 0.0 1.0
 outer loop
  vertex 37.05861649080758 29.903454509069974 0.0
  vertex 30.625147405153903 33.58161681329163 0.0
  vertex 30.691858088333294 26.133354484595035 0.0
 endloop
endfacet
facet normal 0.0 0.0 1.0
 outer loop
  vertex 37.05861649080758 29.903454509069974 0.0
  vertex 37.03134786834239 37.25134659387841 0.0
  vertex 30.625147405153903 33.58161681329163 0.0
 endloop
endfacet
facet normal 0.0 0.0 1.0
 outer loop
  vertex 43.45585278110673 33.66476221873047 0.0
  vertex 37.03134786834239 37.25134659387841 0.0
  vertex 37.05861649080758 29.903454509069974 0.0
 endloop
endfacet
facet normal 0.0 0.0 1.0
 outer loop
  vertex 30.625147405153903 33.58161681329163 0.0
  vertex 24.25296337059647 29.849153645130013 0.0
  vertex 30.691858088333294 26.133354484595035 0.0
 endloop
endfacet
facet normal 0.0 0.0 1.0
 outer loop
  vertex 24.25296337059647 29.849153645130013 0.0
  vertex 24.295791671331738 22.421216549340222 0.0
  vertex 30.691858088333294 26.133354484595035 0.0
 endloop
endfacet
facet normal -0.0 0.0 1.0
 outer loop
  vertex 24.295791671331738 22.421216549340222 0.0
  vertex 30.80802003441786 18.590555481240038 0.0
  vertex 30.691858088333294 26.133354484595035 0.0
 endloop
endfacet
facet normal 0.0 0.0 1.0
 outer loop
  vertex 30.625147405153903 33.58161681329163 0.0
  vertex 24.222930279214854 37.23513743164987 0.0
  vertex 24.25296337059647 29.849153645130013 0.0
 endloop
endfacet
facet normal 0.0 0.0 1.0
 outer loop
  vertex 30.625147405153903 33.58161681329163 0.0
  vertex 30.6137834819271 41.00925984364397 0.0
  vertex 24.222930279214854 37.23513743164987 0.0
 endloop
endfacet
facet normal 0.0 -0.0 1.0
 outer loop
  vertex 30.625147405153903 33.58161681329163 0.0
  vertex 37.03134786834239 37.25134659387841 0.0
  vertex 30.6137834819271 41.00925984364397 0.0
 endloop
endfacet
facet normal 0.0 0.0 1.0
 outer loop
  vertex 24.222930279214854 37.23513743164987 0.0
  vertex 17.91961529392752 33.53896693870133 0.0
  vertex 24.25296337059647 29.849153645130013 0.0
 endloop
endfacet
facet normal 0.0 0.0 1.0
 outer loop
  vertex 24.25296337059647 29.849153645130013 0.0
  vertex 17.867979518489733 26.139129240262058 0.0
  vertex 24.295791671331738 22.421216549340222 0.0
 endloop
endfacet
facet normal 0.0 0.0 1.0
 outer loop
  vertex 24.25296337059647 29.849153645130013 0.0
  vertex 17.91961529392752 33.53896693870133 0.0
  vertex 17.867979518489733 26.139129240262058 0.0
 endloop
endfacet
facet normal 0.0 0.0 1.0
 outer loop
  vertex 30.6137834819271 41.00925984364397 0.0
  vertex 24.334716081257145 44.87641556348136 0.0
  vertex 24.222930279214854 37.23513743164987 0.0
 endloop
endfacet
facet normal 0.0 0.0 1.0
 outer loop
  vertex 24.334716081257145 44.87641556348136 0.0
  vertex 17.847396911711837 40.89620538349894 0.0
  vertex 24.222930279214854 37.23513743164987 0.0
 endloop
endfacet
facet normal 0.0 0.0 1.0
 outer loop
  vertex 17.847396911711837 40.89620538349894 0.0
  vertex 17.91961529392752 33.53896693870133 0.0
  vertex 24.222930279214854 37.23513743164987 0.0
 endloop
endfacet
facet normal 0.0 0.0 1.0
 outer loop
  vertex 17.867979518489733 26.139129240262058 0.0
  vertex 17.879946966491065 18.752688842304853 0.0
  vertex 24.295791671331738 22.421216549340222 0.0
 endloop
endfacet
facet normal -0.0 0.0 1.0
 outer loop
  vertex 17.879946966491065 18.752688842304853 0.0
  vertex 24.43150610078456 14.827534084302915 0.0
  vertex 24.295791671331738 22.421216549340222 0.0
 endloop
endfacet
facet normal 0.0 -0.0 1.0
 outer loop
  vertex 24.43150610078456 14.827534084302915 0.0
  vertex 30.80802003441786 18.590555481240038 0.0
  vertex 24.295791671331738 22.421216549340222 0.0
 endloop
endfacet
facet normal 0.0 -0.0 1.0
 outer loop
  vertex 30.6137834819271 41.00925984364397 0.0
  vertex 30.78022302334236 48.06834059766088 0.0
  vertex 24.334716081257145 44.87641556348136 0.0
 endloop
endfacet
facet normal 0.0 0.0 1.0
 outer loop
  vertex 30.6137834819271 41.00925984364397 0.0
  vertex 36.91457078618236 44.269313856356874 0.0
  vertex 30.78022302334236 48.06834059766088 0.0
 endloop
endfacet
facet normal -0.0 0.0 1.0
 outer loop
  vertex 30.6137834819271 41.00925984364397 0.0
  vertex 37.03134786834239 37.25134659387841 0.0
  vertex 36.91457078618236 44.269313856356874 0.0
 endloop
endfacet
facet normal 0.0 0.0 1.0
 outer loop
  vertex 17.867979518489733 26.139129240262058 0.0
  vertex 12.071820170090739 22.433803441561885 0.0
  vertex 17.879946966491065 18.752688842304853 0.0
 endloop
endfacet
facet normal 0.0 0.0 1.0
 outer loop
  vertex 17.91961529392752 33.53896693870133 0.0
  vertex 12.129115512963132 29.879610706679788 0.0
  vertex 17.867979518489733 26.139129240262058 0.0
 endloop
endfacet
facet normal 0.0 0.0 1.0
 outer loop
  vertex 17.867979518489733 26.139129240262058 0.0
  vertex 12.129115512963132 29.879610706679788 0.0
  vertex 12.071820170090739 22.433803441561885 0.0
 endloop
endfacet
facet normal 0.0 0.0 1.0
 outer loop
  vertex 17.879946966491065 18.752688842304853 0.0
  vertex 17.920332277525713 11.415332231570474 0.0
  vertex 24.43150610078456 14.827534084302915 0.0
 endloop
endfacet
facet normal 0.0 0.0 1.0
 outer loop
  vertex 17.879946966491065 18.752688842304853 0.0
  vertex 11.854119615660707 14.86592604038214 0.0
  vertex 17.920332277525713 11.415332231570474 0.0
 endloop
endfacet
facet normal 0.0 0.0 1.0
 outer loop
  vertex 17.879946966491065 18.752688842304853 0.0
  vertex 12.071820170090739 22.433803441561885 0.0
  vertex 11.854119615660707 14.86592604038214 0.0
 endloop
endfacet
facet normal 0.0 0.0 1.0
 outer loop
  vertex 24.334716081257145 44.87641556348136 0.0
  vertex 17.894576280276702 48.48305827817855 0.0
  vertex 17.847396911711837 40.89620538349894 0.0
 endloop
endfacet
facet normal 0.0 0.0 1.0
 outer loop
  vertex 17.894576280276702 48.48305827817855 0.0
  vertex 11.827677634824184 44.99652129978353 0.0
  vertex 17.847396911711837 40.89620538349894 0.0
 endloop
endfacet
facet normal 0.0 0.0 1.0
 outer loop
  vertex 17.847396911711837 40.89620538349894 0.0
  vertex 12.239284812960632 37.21509447234401 0.0
  vertex 17.91961529392752 33.53896693870133 0.0
 endloop
endfacet
facet normal 0.0 0.0 1.0
 outer loop
  vertex 17.847396911711837 40.89620538349894 0.0
  vertex 11.827677634824184 44.99652129978353 0.0
  vertex 12.239284812960632 37.21509447234401 0.0
 endloop
endfacet
facet normal 0.0 0.0 1.0
 outer loop
  vertex 11.104454578574938 53.573928831304556 0.0
  vertex 11.827677634824184 44.99652129978353 0.0
  vertex 17.894576280276702 48.48305827817855 0.0
 endloop
endfacet
facet normal 0.0 -0.0 1.0
 outer loop
  vertex 17.894576280276702 48.48305827817855 0.0
  vertex 17.896577896581622 55.056732899160025 0.0
  vertex 11.104454578574938 53.573928831304556 0.0
 endloop
endfacet
facet normal 0.0 0.0 1.0
 outer loop
  vertex 31.032187296900954 11.318989608903152 0.0
  vertex 30.80802003441786 18.590555481240038 0.0
  vertex 24.43150610078456 14.827534084302915 0.0
 endloop
endfacet
facet normal 0.0 -0.0 1.0
 outer loop
  vertex 31.032187296900954 11.318989608903152 0.0
  vertex 37.25356527332531 15.082572576820695 0.0
  vertex 30.80802003441786 18.590555481240038 0.0
 endloop
endfacet
facet normal -0.0 0.0 1.0
 outer loop
  vertex 31.032187296900954 11.318989608903152 0.0
  vertex 38.13020974910776 6.955717742168996 0.0
  vertex 37.25356527332531 15.082572576820695 0.0
 endloop
endfacet
facet normal 0.0 0.0 1.0
 outer loop
  vertex 31.032187296900954 11.318989608903152 0.0
  vertex 31.734152771905784 5.109666987168467 0.0
  vertex 38.13020974910776 6.955717742168996 0.0
 endloop
endfacet
facet normal 0.0 0.0 1.0
 outer loop
  vertex 36.91457078618236 44.269313856356874 0.0
  vertex 36.262620286380596 49.998510315919006 0.0
  vertex 30.78022302334236 48.06834059766088 0.0
 endloop
endfacet
facet normal 0.0 0.0 1.0
 outer loop
  vertex 30.78022302334236 48.06834059766088 0.0
  vertex 36.262620286380596 49.998510315919006 0.0
  vertex 32.31608484778236 54.54118788567457 0.0
 endloop
endfacet
facet normal 0.0 0.0 1.0
 outer loop
  vertex 12.239284812960632 37.21509447234401 0.0
  vertex 11.827677634824184 44.99652129978353 0.0
  vertex 6.112894327678973 41.113098106028616 0.0
 endloop
endfacet
facet normal 0.0 0.0 1.0
 outer loop
  vertex 42.904240067602785 48.859271065307865 0.0
  vertex 36.262620286380596 49.998510315919006 0.0
  vertex 36.91457078618236 44.269313856356874 0.0
 endloop
endfacet
facet normal 0.0 -0.0 1.0
 outer loop
  vertex 12.071820170090739 22.433803441561885 0.0
  vertex 12.129115512963132 29.879610706679788 0.0
  vertex 6.2745968566883725 26.228306295591054 0.0
 endloop
endfacet
facet normal 0.0 0.0 1.0
 outer loop
  vertex 17.91961529392752 33.53896693870133 0.0
  vertex 12.239284812960632 37.21509447234401 0.0
  vertex 12.129115512963132 29.879610706679788 0.0
 endloop
endfacet
facet normal 0.0 -1.0 0.0
 outer loop
  vertex 0.0 0.0 0.0
  vertex 7.142857142857131 0.0 0.0
  vertex 3.9358600583090295 0.0 3.214285714285713
 endloop
endfacet
facet normal 0.0 -1.0 0.0
 outer loop
  vertex 0.0 0.0 4.999999999999997
  vertex 0.0 0.0 0.0
  vertex 3.9358600583090295 0.0 3.214285714285713
 endloop
endfacet
facet normal 0.0 -1.0 0.0
 outer loop
  vertex 42.85714285714282 0.0 0.0
  vertex 50.0 0.0 0.0
  vertex 46.06413994169095 0.0 3.214285714285713
 endloop
endfacet
facet normal 0.0 -1.0 0.0
 outer loop
  vertex 50.0 0.0 0.0
  vertex 50.0 0.0 4.999999999999997
  vertex 46.06413994169095 0.0 3.214285714285713
 endloop
endfacet
facet normal 0.0 -1.0 0.0
 outer loop
  vertex 0.0 0.0 10.0
  vertex 0.0 0.0 4.999999999999997
  vertex 3.868923662759557 0.0 7.06268221574344
 endloop
endfacet
facet normal -0.0 -1.0 0.0
 outer loop
  vertex 7.142857142857131 0.0 10.0
  vertex 0.0 0.0 10.0
  vertex 3.868923662759557 0.0 7.06268221574344
 endloop
endfacet
facet normal 0.0 -1.0 0.0
 outer loop
  vertex 50.0 0.0 4.999999999999997
  vertex 50.0 0.0 10.0
  vertex 46.131076337240415 0.0 7.06268221574344
 endloop
endfacet
facet normal -0.0 -1.0 0.0
 outer loop
  vertex 50.0 0.0 10.0
  vertex 42.85714285714282 0.0 10.0
  vertex 46.131076337240415 0.0 7.06268221574344
 endloop
endfacet
facet normal 0.0 -1.0 0.0
 outer loop
  vertex 7.142857142857131 0.0 0.0
  vertex 14.28571428571425 0.0 0.0
  vertex 9.693877551020385 0.0 5.0
 endloop
endfacet
facet normal 0.0 -1.0 0.0
 outer loop
  vertex 7.142857142857131 0.0 0.0
  vertex 9.693877551020385 0.0 5.0
  vertex 3.9358600583090295 0.0 3.214285714285713
 endloop
endfacet
facet normal 0.0 -1.0 0.0
 outer loop
  vertex 14.28571428571425 0.0 0.0
  vertex 21.428571428571367 0.0 0.0
  vertex 17.857142857142808 0.0 5.0
 endloop
endfacet
facet normal 0.0 -1.0 0.0
 outer loop
  vertex 14.28571428571425 0.0 0.0
  vertex 17.857142857142808 0.0 5.0
  vertex 9.693877551020385 0.0 5.0
 endloop
endfacet
facet normal 0.0 -1.0 0.0
 outer loop
  vertex 21.428571428571367 0.0 0.0
  vertex 28.571428571428484 0.0 0.0
  vertex 24.99999999999993 0.0 5.0
 endloop
endfacet
facet normal 0.0 -1.0 0.0
 outer loop
  vertex 17.857142857142808 0.0 5.0
  vertex 21.428571428571367 0.0 0.0
  vertex 24.99999999999993 0.0 5.0
 endloop
endfacet
facet normal 0.0 -1.0 0.0
 outer loop
  vertex 28.571428571428484 0.0 0.0
  vertex 35.71428571428564 0.0 0.0
  vertex 32.14285714285705 0.0 5.0
 endloop
endfacet
facet normal 0.0 -1.0 0.0
 outer loop
  vertex 28.571428571428484 0.0 0.0
  vertex 32.14285714285705 0.0 5.0
  vertex 24.99999999999993 0.0 5.0
 endloop
endfacet
facet normal 0.0 -1.0 0.0
 outer loop
  vertex 35.71428571428564 0.0 0.0
  vertex 42.85714285714282 0.0 0.0
  vertex 40.306122448979536 0.0 5.0
 endloop
endfacet
facet normal 0.0 -1.0 0.0
 outer loop
  vertex 32.14285714285705 0.0 5.0
  vertex 35.71428571428564 0.0 0.0
  vertex 40.306122448979536 0.0 5.0
 endloop
endfacet
facet normal 0.0 -1.0 0.0
 outer loop
  vertex 40.306122448979536 0.0 5.0
  vertex 42.85714285714282 0.0 0.0
  vertex 46.06413994169095 0.0 3.214285714285713
 endloop
endfacet
facet normal 0.0 -1.0 0.0
 outer loop
  vertex 0.0 0.0 4.999999999999997
  vertex 3.9358600583090295 0.0 3.214285714285713
  vertex 3.868923662759557 0.0 7.06268221574344
 endloop
endfacet
facet normal 0.0 -1.0 0.0
 outer loop
  vertex 46.06413994169095 0.0 3.214285714285713
  vertex 50.0 0.0 4.999999999999997
  vertex 46.131076337240415 0.0 7.06268221574344
 endloop
endfacet
facet normal -0.0 -1.0 0.0
 outer loop
  vertex 14.28571428571425 0.0 10.0
  vertex 7.142857142857131 0.0 10.0
  vertex 9.693877551020385 0.0 5.0
 endloop
endfacet
facet normal 0.0 -1.0 0.0
 outer loop
  vertex 9.693877551020385 0.0 5.0
  vertex 7.142857142857131 0.0 10.0
  vertex 3.868923662759557 0.0 7.06268221574344
 endloop
endfacet
facet normal -0.0 -1.0 0.0
 outer loop
  vertex 21.428571428571367 0.0 10.0
  vertex 14.28571428571425 0.0 10.0
  vertex 17.857142857142808 0.0 5.0
 endloop
endfacet
facet normal 0.0 -1.0 0.0
 outer loop
  vertex 17.857142857142808 0.0 5.0
  vertex 14.28571428571425 0.0 10.0
  vertex 9.693877551020385 0.0 5.0
 endloop
endfacet
facet normal -0.0 -1.0 0.0
 outer loop
  vertex 28.571428571428484 0.0 10.0
  vertex 21.428571428571367 0.0 10.0
  vertex 24.99999999999993 0.0 5.0
 endloop
endfacet
facet normal 0.0 -1.0 -0.0
 outer loop
  vertex 21.428571428571367 0.0 10.0
  vertex 17.857142857142808 0.0 5.0
  vertex 24.99999999999993 0.0 5.0
 endloop
endfacet
facet normal -0.0 -1.0 0.0
 outer loop
  vertex 35.71428571428564 0.0 10.0
  vertex 28.571428571428484 0.0 10.0
  vertex 32.14285714285705 0.0 5.0
 endloop
endfacet
facet normal 0.0 -1.0 0.0
 outer loop
  vertex 32.14285714285705 0.0 5.0
  vertex 28.571428571428484 0.0 10.0
  vertex 24.99999999999993 0.0 5.0
 endloop
endfacet
facet normal -0.0 -1.0 0.0
 outer loop
  vertex 42.85714285714282 0.0 10.0
  vertex 35.71428571428564 0.0 10.0
  vertex 40.306122448979536 0.0 5.0
 endloop
endfacet
facet normal 0.0 -1.0 -0.0
 outer loop
  vertex 35.71428571428564 0.0 10.0
  vertex 32.14285714285705 0.0 5.0
  vertex 40.306122448979536 0.0 5.0
 endloop
endfacet
facet normal 0.0 -1.0 -0.0
 outer loop
  vertex 42.85714285714282 0.0 10.0
  vertex 40.306122448979536 0.0 5.0
  vertex 46.131076337240415 0.0 7.06268221574344
 endloop
endfacet
facet normal 0.0 -1.0 0.0
 outer loop
  vertex 3.9358600583090295 0.0 3.214285714285713
  vertex 9.693877551020385 0.0 5.0
  vertex 3.868923662759557 0.0 7.06268221574344
 endloop
endfacet
facet normal 0.0 -1.0 0.0
 outer loop
  vertex 40.306122448979536 0.0 5.0
  vertex 46.06413994169095 0.0 3.214285714285713
  vertex 46.131076337240415 0.0 7.06268221574344
 endloop
endfacet
facet normal 1.0 0.0 0.0
 outer loop
  vertex 50.0 0.0 0.0
  vertex 50.0 7.500000000000009 0.0
  vertex 50.0 5.037050534499517 5.0
 endloop
endfacet
facet normal 1.0 -0.0 0.0
 outer loop
  vertex 50.0 0.0 4.999999999999997
  vertex 50.0 0.0 0.0
  vertex 50.0 5.037050534499517 5.0
 endloop
endfacet
facet normal 1.0 0.0 0.0
 outer loop
  vertex 50.0 52.50000000000002 0.0
  vertex 50.0 60.0 0.0
  vertex 50.0 54.962949465500486 4.999999999999999
 endloop
endfacet
facet normal 1.0 0.0 -0.0
 outer loop
  vertex 50.0 60.0 0.0
  vertex 50.0 60.0 4.999999999999997
  vertex 50.0 54.962949465500486 4.999999999999999
 endloop
endfacet
facet normal 1.0 0.0 0.0
 outer loop
  vertex 50.0 0.0 10.0
  vertex 50.0 0.0 4.999999999999997
  vertex 50.0 5.037050534499517 5.0
 endloop
endfacet
facet normal 1.0 0.0 0.0
 outer loop
  vertex 50.0 7.500000000000009 10.0
  vertex 50.0 0.0 10.0
  vertex 50.0 5.037050534499517 5.0
 endloop
endfacet
facet normal 1.0 0.0 -0.0
 outer loop
  vertex 50.0 60.0 4.999999999999997
  vertex 50.0 60.0 10.0
  vertex 50.0 54.962949465500486 4.999999999999999
 endloop
endfacet
facet normal 1.0 0.0 0.0
 outer loop
  vertex 50.0 60.0 10.0
  vertex 50.0 52.50000000000002 10.0
  vertex 50.0 54.962949465500486 4.999999999999999
 endloop
endfacet
facet normal 1.0 0.0 0.0
 outer loop
  vertex 50.0 7.500000000000009 0.0
  vertex 50.0 15.000000000000014 0.0
  vertex 50.0 11.25000000000001 5.0
 endloop
endfacet
facet normal 1.0 0.0 -0.0
 outer loop
  vertex 50.0 7.500000000000009 0.0
  vertex 50.0 11.25000000000001 5.0
  vertex 50.0 5.037050534499517 5.0
 endloop
endfacet
facet normal 1.0 0.0 0.0
 outer loop
  vertex 50.0 15.000000000000014 0.0
  vertex 50.0 22.500000000000043 0.0
  vertex 50.0 18.75000000000003 5.0
 endloop
endfacet
facet normal 1.0 -0.0 0.0
 outer loop
  vertex 50.0 11.25000000000001 5.0
  vertex 50.0 15.000000000000014 0.0
  vertex 50.0 18.75000000000003 5.0
 endloop
endfacet
facet normal 1.0 0.0 0.0
 outer loop
  vertex 50.0 22.500000000000043 0.0
  vertex 50.0 30.000000000000078 0.0
  vertex 50.0 26.250000000000057 5.0
 endloop
endfacet
facet normal 1.0 0.0 -0.0
 outer loop
  vertex 50.0 22.500000000000043 0.0
  vertex 50.0 26.250000000000057 5.0
  vertex 50.0 18.75000000000003 5.0
 endloop
endfacet
facet normal 1.0 0.0 0.0
 outer loop
  vertex 50.0 30.000000000000078 0.0
  vertex 50.0 37.50000000000007 0.0
  vertex 50.0 33.75000000000007 5.0
 endloop
endfacet
facet normal 1.0 0.0 -0.0
 outer loop
  vertex 50.0 30.000000000000078 0.0
  vertex 50.0 33.75000000000007 5.0
  vertex 50.0 26.250000000000057 5.0
 endloop
endfacet
facet normal 1.0 0.0 0.0
 outer loop
  vertex 50.0 37.50000000000007 0.0
  vertex 50.0 45.00000000000004 0.0
  vertex 50.0 41.25000000000006 5.0
 endloop
endfacet
facet normal 1.0 -0.0 0.0
 outer loop
  vertex 50.0 33.75000000000007 5.0
  vertex 50.0 37.50000000000007 0.0
  vertex 50.0 41.25000000000006 5.0
 endloop
endfacet
facet normal 1.0 0.0 0.0
 outer loop
  vertex 50.0 45.00000000000004 0.0
  vertex 50.0 52.50000000000002 0.0
  vertex 50.0 48.75000000000003 5.000000000000002
 endloop
endfacet
facet normal 1.0 0.0 -0.0
 outer loop
  vertex 50.0 45.00000000000004 0.0
  vertex 50.0 48.75000000000003 5.000000000000002
  vertex 50.0 41.25000000000006 5.0
 endloop
endfacet
facet normal 1.0 0.0 0.0
 outer loop
  vertex 50.0 48.75000000000003 5.000000000000002
  vertex 50.0 52.50000000000002 0.0
  vertex 50.0 54.962949465500486 4.999999999999999
 endloop
endfacet
facet normal 1.0 0.0 0.0
 outer loop
  vertex 50.0 15.000000000000014 10.0
  vertex 50.0 7.500000000000009 10.0
  vertex 50.0 11.25000000000001 5.0
 endloop
endfacet
facet normal 1.0 0.0 0.0
 outer loop
  vertex 50.0 11.25000000000001 5.0
  vertex 50.0 7.500000000000009 10.0
  vertex 50.0 5.037050534499517 5.0
 endloop
endfacet
facet normal 1.0 0.0 0.0
 outer loop
  vertex 50.0 22.500000000000043 10.0
  vertex 50.0 15.000000000000014 10.0
  vertex 50.0 18.75000000000003 5.0
 endloop
endfacet
facet normal 1.0 0.0 0.0
 outer loop
  vertex 50.0 15.000000000000014 10.0
  vertex 50.0 11.25000000000001 5.0
  vertex 50.0 18.75000000000003 5.0
 endloop
endfacet
facet normal 1.0 0.0 0.0
 outer loop
  vertex 50.0 30.000000000000078 10.0
  vertex 50.0 22.500000000000043 10.0
  vertex 50.0 26.250000000000057 5.0
 endloop
endfacet
facet normal 1.0 0.0 0.0
 outer loop
  vertex 50.0 26.250000000000057 5.0
  vertex 50.0 22.500000000000043 10.0
  vertex 50.0 18.75000000000003 5.0
 endloop
endfacet
facet normal 1.0 0.0 0.0
 outer loop
  vertex 50.0 37.50000000000007 10.0
  vertex 50.0 30.000000000000078 10.0
  vertex 50.0 33.75000000000007 5.0
 endloop
endfacet
facet normal 1.0 0.0 0.0
 outer loop
  vertex 50.0 33.75000000000007 5.0
  vertex 50.0 30.000000000000078 10.0
  vertex 50.0 26.250000000000057 5.0
 endloop
endfacet
facet normal 1.0 0.0 0.0
 outer loop
  vertex 50.0 45.00000000000004 10.0
  vertex 50.0 37.50000000000007 10.0
  vertex 50.0 41.25000000000006 5.0
 endloop
endfacet
facet normal 1.0 0.0 0.0
 outer loop
  vertex 50.0 37.50000000000007 10.0
  vertex 50.0 33.75000000000007 5.0
  vertex 50.0 41.25000000000006 5.0
 endloop
endfacet
facet normal 1.0 0.0 0.0
 outer loop
  vertex 50.0 52.50000000000002 10.0
  vertex 50.0 45.00000000000004 10.0
  vertex 50.0 48.75000000000003 5.000000000000002
 endloop
endfacet
facet normal 1.0 0.0 0.0
 outer loop
  vertex 50.0 48.75000000000003 5.000000000000002
  vertex 50.0 45.00000000000004 10.0
  vertex 50.0 41.25000000000006 5.0
 endloop
endfacet
facet normal 1.0 0.0 0.0
 outer loop
  vertex 50.0 52.50000000000002 10.0
  vertex 50.0 48.75000000000003 5.000000000000002
  vertex 50.0 54.962949465500486 4.999999999999999
 endloop
endfacet
facet normal 0.0 1.0 0.0
 outer loop
  vertex 50.0 60.0 0.0
  vertex 42.85714285714287 60.0 0.0
  vertex 46.06413994169097 60.0 3.214285714285713
 endloop
endfacet
facet normal 0.0 1.0 0.0
 outer loop
  vertex 50.0 60.0 4.999999999999997
  vertex 50.0 60.0 0.0
  vertex 46.06413994169097 60.0 3.214285714285713
 endloop
endfacet
facet normal 0.0 1.0 0.0
 outer loop
  vertex 7.142857142857181 60.0 0.0
  vertex 0.0 60.0 0.0
  vertex 3.8689236627595847 60.0 2.9373177842565585
 endloop
endfacet
facet normal 0.0 1.0 0.0
 outer loop
  vertex 0.0 60.0 0.0
  vertex 0.0 60.0 4.999999999999997
  vertex 3.8689236627595847 60.0 2.9373177842565585
 endloop
endfacet
facet normal 0.0 1.0 0.0
 outer loop
  vertex 50.0 60.0 10.0
  vertex 50.0 60.0 4.999999999999997
  vertex 46.131076337240444 60.0 7.06268221574344
 endloop
endfacet
facet normal -0.0 1.0 0.0
 outer loop
  vertex 42.85714285714287 60.0 10.0
  vertex 50.0 60.0 10.0
  vertex 46.131076337240444 60.0 7.06268221574344
 endloop
endfacet
facet normal 0.0 1.0 0.0
 outer loop
  vertex 0.0 60.0 4.999999999999997
  vertex 0.0 60.0 10.0
  vertex 3.9358600583090606 60.0 6.785714285714285
 endloop
endfacet
facet normal -0.0 1.0 0.0
 outer loop
  vertex 0.0 60.0 10.0
  vertex 7.142857142857181 60.0 10.0
  vertex 3.9358600583090606 60.0 6.785714285714285
 endloop
endfacet
facet normal 0.0 1.0 0.0
 outer loop
  vertex 42.85714285714287 60.0 0.0
  vertex 35.71428571428575 60.0 0.0
  vertex 40.306122448979615 60.0 5.0
 endloop
endfacet
facet normal 0.0 1.0 -0.0
 outer loop
  vertex 42.85714285714287 60.0 0.0
  vertex 40.306122448979615 60.0 5.0
  vertex 46.06413994169097 60.0 3.214285714285713
 endloop
endfacet
facet normal 0.0 1.0 0.0
 outer loop
  vertex 35.71428571428575 60.0 0.0
  vertex 28.571428571428633 60.0 0.0
  vertex 32.187127245733826 60.0 5.0
 endloop
endfacet
facet normal 0.0 1.0 0.0
 outer loop
  vertex 40.306122448979615 60.0 5.0
  vertex 35.71428571428575 60.0 0.0
  vertex 32.187127245733826 60.0 5.0
 endloop
endfacet
facet normal 0.0 1.0 0.0
 outer loop
  vertex 28.571428571428633 60.0 0.0
  vertex 21.428571428571516 60.0 0.0
  vertex 25.00000000000007 60.0 5.0
 endloop
endfacet
facet normal 0.0 1.0 -0.0
 outer loop
  vertex 28.571428571428633 60.0 0.0
  vertex 25.00000000000007 60.0 5.0
  vertex 32.187127245733826 60.0 5.0
 endloop
endfacet
facet normal 0.0 1.0 0.0
 outer loop
  vertex 21.428571428571516 60.0 0.0
  vertex 14.285714285714363 60.0 0.0
  vertex 17.857142857142946 60.0 4.999999999999998
 endloop
endfacet
facet normal 0.0 1.0 0.0
 outer loop
  vertex 25.00000000000007 60.0 5.0
  vertex 21.428571428571516 60.0 0.0
  vertex 17.857142857142946 60.0 4.999999999999998
 endloop
endfacet
facet normal 0.0 1.0 0.0
 outer loop
  vertex 14.285714285714363 60.0 0.0
  vertex 7.142857142857181 60.0 0.0
  vertex 9.693877551020464 60.0 4.999999999999999
 endloop
endfacet
facet normal 0.0 1.0 0.0
 outer loop
  vertex 17.857142857142946 60.0 4.999999999999998
  vertex 14.285714285714363 60.0 0.0
  vertex 9.693877551020464 60.0 4.999999999999999
 endloop
endfacet
facet normal 0.0 1.0 0.0
 outer loop
  vertex 9.693877551020464 60.0 4.999999999999999
  vertex 7.142857142857181 60.0 0.0
  vertex 3.8689236627595847 60.0 2.9373177842565585
 endloop
endfacet
facet normal 0.0 1.0 0.0
 outer loop
  vertex 50.0 60.0 4.999999999999997
  vertex 46.06413994169097 60.0 3.214285714285713
  vertex 46.131076337240444 60.0 7.06268221574344
 endloop
endfacet
facet normal -0.0 1.0 0.0
 outer loop
  vertex 0.0 60.0 4.999999999999997
  vertex 3.9358600583090606 60.0 6.785714285714285
  vertex 3.8689236627595847 60.0 2.9373177842565585
 endloop
endfacet
facet normal -0.0 1.0 0.0
 outer loop
  vertex 35.71428571428575 60.0 10.0
  vertex 42.85714285714287 60.0 10.0
  vertex 40.306122448979615 60.0 5.0
 endloop
endfacet
facet normal 0.0 1.0 0.0
 outer loop
  vertex 40.306122448979615 60.0 5.0
  vertex 42.85714285714287 60.0 10.0
  vertex 46.131076337240444 60.0 7.06268221574344
 endloop
endfacet
facet normal -0.0 1.0 0.0
 outer loop
  vertex 28.571428571428633 60.0 10.0
  vertex 35.71428571428575 60.0 10.0
  vertex 32.187127245733826 60.0 5.0
 endloop
endfacet
facet normal 0.0 1.0 0.0
 outer loop
  vertex 35.71428571428575 60.0 10.0
  vertex 40.306122448979615 60.0 5.0
  vertex 32.187127245733826 60.0 5.0
 endloop
endfacet
facet normal -0.0 1.0 0.0
 outer loop
  vertex 21.428571428571516 60.0 10.0
  vertex 28.571428571428633 60.0 10.0
  vertex 25.00000000000007 60.0 5.0
 endloop
endfacet
facet normal 0.0 1.0 0.0
 outer loop
  vertex 25.00000000000007 60.0 5.0
  vertex 28.571428571428633 60.0 10.0
  vertex 32.187127245733826 60.0 5.0
 endloop
endfacet
facet normal -0.0 1.0 0.0
 outer loop
  vertex 14.285714285714363 60.0 10.0
  vertex 21.428571428571516 60.0 10.0
  vertex 17.857142857142946 60.0 4.999999999999998
 endloop
endfacet
facet normal 0.0 1.0 0.0
 outer loop
  vertex 21.428571428571516 60.0 10.0
  vertex 25.00000000000007 60.0 5.0
  vertex 17.857142857142946 60.0 4.999999999999998
 endloop
endfacet
facet normal -0.0 1.0 0.0
 outer loop
  vertex 7.142857142857181 60.0 10.0
  vertex 14.285714285714363 60.0 10.0
  vertex 9.693877551020464 60.0 4.999999999999999
 endloop
endfacet
facet normal 0.0 1.0 0.0
 outer loop
  vertex 14.285714285714363 60.0 10.0
  vertex 17.857142857142946 60.0 4.999999999999998
  vertex 9.693877551020464 60.0 4.999999999999999
 endloop
endfacet
facet normal 0.0 1.0 0.0
 outer loop
  vertex 7.142857142857181 60.0 10.0
  vertex 9.693877551020464 60.0 4.999999999999999
  vertex 3.9358600583090606 60.0 6.785714285714285
 endloop
endfacet
facet normal 0.0 1.0 -0.0
 outer loop
  vertex 46.06413994169097 60.0 3.214285714285713
  vertex 40.306122448979615 60.0 5.0
  vertex 46.131076337240444 60.0 7.06268221574344
 endloop
endfacet
facet normal 0.0 1.0 0.0
 outer loop
  vertex 3.9358600583090606 60.0 6.785714285714285
  vertex 9.693877551020464 60.0 4.999999999999999
  vertex 3.8689236627595847 60.0 2.9373177842565585
 endloop
endfacet
facet normal -1.0 0.0 0.0
 outer loop
  vertex 0.0 7.499999999999979 0.0
  vertex 0.0 0.0 0.0
  vertex 0.0 5.037050534499514 5.0
 endloop
endfacet
facet normal -1.0 0.0 0.0
 outer loop
  vertex 0.0 0.0 0.0
  vertex 0.0 0.0 4.999999999999997
  vertex 0.0 5.037050534499514 5.0
 endloop
endfacet
facet normal -1.0 0.0 0.0
 outer loop
  vertex 0.0 60.0 0.0
  vertex 0.0 52.49999999999999 0.0
  vertex 0.0 54.962949465500486 5.0
 endloop
endfacet
facet normal -1.0 -0.0 -0.0
 outer loop
  vertex 0.0 60.0 4.999999999999997
  vertex 0.0 60.0 0.0
  vertex 0.0 54.962949465500486 5.0
 endloop
endfacet
facet normal -1.0 0.0 0.0
 outer loop
  vertex 0.0 0.0 4.999999999999997
  vertex 0.0 0.0 10.0
  vertex 0.0 5.037050534499514 5.0
 endloop
endfacet
facet normal -1.0 0.0 0.0
 outer loop
  vertex 0.0 0.0 10.0
  vertex 0.0 7.499999999999979 10.0
  vertex 0.0 5.037050534499514 5.0
 endloop
endfacet
facet normal -1.0 0.0 -0.0
 outer loop
  vertex 0.0 60.0 10.0
  vertex 0.0 60.0 4.999999999999997
  vertex 0.0 54.962949465500486 5.0
 endloop
endfacet
facet normal -1.0 0.0 0.0
 outer loop
  vertex 0.0 52.49999999999999 10.0
  vertex 0.0 60.0 10.0
  vertex 0.0 54.962949465500486 5.0
 endloop
endfacet
facet normal -1.0 0.0 0.0
 outer loop
  vertex 0.0 52.49999999999999 0.0
  vertex 0.0 44.999999999999986 0.0
  vertex 0.0 48.749999999999986 4.999999999999999
 endloop
endfacet
facet normal -1.0 0.0 0.0
 outer loop
  vertex 0.0 52.49999999999999 0.0
  vertex 0.0 48.749999999999986 4.999999999999999
  vertex 0.0 54.962949465500486 5.0
 endloop
endfacet
facet normal -1.0 0.0 0.0
 outer loop
  vertex 0.0 44.999999999999986 0.0
  vertex 0.0 37.49999999999996 0.0
  vertex 0.0 41.24999999999997 5.0
 endloop
endfacet
facet normal -1.0 -0.0 0.0
 outer loop
  vertex 0.0 48.749999999999986 4.999999999999999
  vertex 0.0 44.999999999999986 0.0
  vertex 0.0 41.24999999999997 5.0
 endloop
endfacet
facet normal -1.0 0.0 0.0
 outer loop
  vertex 0.0 37.49999999999996 0.0
  vertex 0.0 29.999999999999922 0.0
  vertex 0.0 33.74999999999994 5.0
 endloop
endfacet
facet normal -1.0 0.0 0.0
 outer loop
  vertex 0.0 37.49999999999996 0.0
  vertex 0.0 33.74999999999994 5.0
  vertex 0.0 41.24999999999997 5.0
 endloop
endfacet
facet normal -1.0 0.0 0.0
 outer loop
  vertex 0.0 29.999999999999922 0.0
  vertex 0.0 22.49999999999993 0.0
  vertex 0.0 26.24999999999993 5.0
 endloop
endfacet
facet normal -1.0 0.0 0.0
 outer loop
  vertex 0.0 29.999999999999922 0.0
  vertex 0.0 26.24999999999993 5.0
  vertex 0.0 33.74999999999994 5.0
 endloop
endfacet
facet normal -1.0 0.0 0.0
 outer loop
  vertex 0.0 22.49999999999993 0.0
  vertex 0.0 14.999999999999957 0.0
  vertex 0.0 18.749999999999943 5.0
 endloop
endfacet
facet normal -1.0 -0.0 0.0
 outer loop
  vertex 0.0 26.24999999999993 5.0
  vertex 0.0 22.49999999999993 0.0
  vertex 0.0 18.749999999999943 5.0
 endloop
endfacet
facet normal -1.0 0.0 0.0
 outer loop
  vertex 0.0 14.999999999999957 0.0
  vertex 0.0 7.499999999999979 0.0
  vertex 0.0 11.249999999999972 5.0
 endloop
endfacet
facet normal -1.0 0.0 0.0
 outer loop
  vertex 0.0 14.999999999999957 0.0
  vertex 0.0 11.249999999999972 5.0
  vertex 0.0 18.749999999999943 5.0
 endloop
endfacet
facet normal -1.0 -0.0 0.0
 outer loop
  vertex 0.0 11.249999999999972 5.0
  vertex 0.0 7.499999999999979 0.0
  vertex 0.0 5.037050534499514 5.0
 endloop
endfacet
facet normal -1.0 0.0 0.0
 outer loop
  vertex 0.0 44.999999999999986 10.0
  vertex 0.0 52.49999999999999 10.0
  vertex 0.0 48.749999999999986 4.999999999999999
 endloop
endfacet
facet normal -1.0 0.0 0.0
 outer loop
  vertex 0.0 48.749999999999986 4.999999999999999
  vertex 0.0 52.49999999999999 10.0
  vertex 0.0 54.962949465500486 5.0
 endloop
endfacet
facet normal -1.0 0.0 0.0
 outer loop
  vertex 0.0 37.49999999999996 10.0
  vertex 0.0 44.999999999999986 10.0
  vertex 0.0 41.24999999999997 5.0
 endloop
endfacet
facet normal -1.0 0.0 -0.0
 outer loop
  vertex 0.0 44.999999999999986 10.0
  vertex 0.0 48.749999999999986 4.999999999999999
  vertex 0.0 41.24999999999997 5.0
 endloop
endfacet
facet normal -1.0 0.0 0.0
 outer loop
  vertex 0.0 29.999999999999922 10.0
  vertex 0.0 37.49999999999996 10.0
  vertex 0.0 33.74999999999994 5.0
 endloop
endfacet
facet normal -1.0 0.0 0.0
 outer loop
  vertex 0.0 33.74999999999994 5.0
  vertex 0.0 37.49999999999996 10.0
  vertex 0.0 41.24999999999997 5.0
 endloop
endfacet
facet normal -1.0 0.0 0.0
 outer loop
  vertex 0.0 22.49999999999993 10.0
  vertex 0.0 29.999999999999922 10.0
  vertex 0.0 26.24999999999993 5.0
 endloop
endfacet
facet normal -1.0 0.0 0.0
 outer loop
  vertex 0.0 26.24999999999993 5.0
  vertex 0.0 29.999999999999922 10.0
  vertex 0.0 33.74999999999994 5.0
 endloop
endfacet
facet normal -1.0 0.0 0.0
 outer loop
  vertex 0.0 14.999999999999957 10.0
  vertex 0.0 22.49999999999993 10.0
  vertex 0.0 18.749999999999943 5.0
 endloop
endfacet
facet normal -1.0 0.0 -0.0
 outer loop
  vertex 0.0 22.49999999999993 10.0
  vertex 0.0 26.24999999999993 5.0
  vertex 0.0 18.749999999999943 5.0
 endloop
endfacet
facet normal -1.0 0.0 0.0
 outer loop
  vertex 0.0 7.499999999999979 10.0
  vertex 0.0 14.999999999999957 10.0
  vertex 0.0 11.249999999999972 5.0
 endloop
endfacet
facet normal -1.0 0.0 0.0
 outer loop
  vertex 0.0 11.249999999999972 5.0
  vertex 0.0 14.999999999999957 10.0
  vertex 0.0 18.749999999999943 5.0
 endloop
endfacet
facet normal -1.0 0.0 -0.0
 outer loop
  vertex 0.0 7.499999999999979 10.0
  vertex 0.0 11.249999999999972 5.0
  vertex 0.0 5.037050534499514 5.0
 endloop
endfacet
facet normal 0.0 0.0 1.0
 outer loop
  vertex 7.142857142857131 0.0 10.0
  vertex 5.163797026075432 5.266541385377959 10.0
  vertex 0.0 0.0 10.0
 endloop
endfacet
facet normal 0.0 0.0 1.0
 outer loop
  vertex 0.0 0.0 10.0
  vertex 5.163797026075432 5.266541385377959 10.0
  vertex 0.0 7.499999999999979 10.0
 endloop
endfacet
facet normal 0.0 0.0 1.0
 outer loop
  vertex 50.0 0.0 10.0
  vertex 44.54209983550056 5.546639612448441 10.0
  vertex 42.85714285714282 0.0 10.0
 endloop
endfacet
facet normal 0.0 0.0 1.0
 outer loop
  vertex 50.0 7.500000000000009 10.0
  vertex 44.54209983550056 5.546639612448441 10.0
  vertex 50.0 0.0 10.0
 endloop
endfacet
facet normal 0.0 0.0 1.0
 outer loop
  vertex 50.0 60.0 10.0
  vertex 44.87653646371217 54.85348279797074 10.0
  vertex 50.0 52.50000000000002 10.0
 endloop
endfacet
facet normal -0.0 0.0 1.0
 outer loop
  vertex 42.85714285714287 60.0 10.0
  vertex 44.87653646371217 54.85348279797074 10.0
  vertex 50.0 60.0 10.0
 endloop
endfacet
facet normal -0.0 0.0 1.0
 outer loop
  vertex 0.0 60.0 10.0
  vertex 5.136141524565161 54.75979718748897 10.0
  vertex 7.142857142857181 60.0 10.0
 endloop
endfacet
facet normal 0.0 0.0 1.0
 outer loop
  vertex 0.0 52.49999999999999 10.0
  vertex 5.136141524565161 54.75979718748897 10.0
  vertex 0.0 60.0 10.0
 endloop
endfacet
facet normal 0.0 0.0 1.0
 outer loop
  vertex 14.28571428571425 0.0 10.0
  vertex 11.016610877183558 6.459695058667144 10.0
  vertex 7.142857142857131 0.0 10.0
 endloop
endfacet
facet normal 0.0 0.0 1.0
 outer loop
  vertex 11.016610877183558 6.459695058667144 10.0
  vertex 5.163797026075432 5.266541385377959 10.0
  vertex 7.142857142857131 0.0 10.0
 endloop
endfacet
facet normal 0.0 0.0 1.0
 outer loop
  vertex 21.428571428571367 0.0 10.0
  vertex 17.883814697168347 4.907386507600901 10.0
  vertex 14.28571428571425 0.0 10.0
 endloop
endfacet
facet normal 0.0 -0.0 1.0
 outer loop
  vertex 14.28571428571425 0.0 10.0
  vertex 17.883814697168347 4.907386507600901 10.0
  vertex 11.016610877183558 6.459695058667144 10.0
 endloop
endfacet
facet normal 0.0 0.0 1.0
 outer loop
  vertex 28.571428571428484 0.0 10.0
  vertex 24.767844616846848 6.661905247766903 10.0
  vertex 21.428571428571367 0.0 10.0
 endloop
endfacet
facet normal 0.0 0.0 1.0
 outer loop
  vertex 24.767844616846848 6.661905247766903 10.0
  vertex 17.883814697168347 4.907386507600901 10.0
  vertex 21.428571428571367 0.0 10.0
 endloop
endfacet
facet normal 0.0 0.0 1.0
 outer loop
  vertex 35.71428571428564 0.0 10.0
  vertex 31.734152771905787 5.109666987168474 10.0
  vertex 28.571428571428484 0.0 10.0
 endloop
endfacet
facet normal 0.0 -0.0 1.0
 outer loop
  vertex 28.571428571428484 0.0 10.0
  vertex 31.734152771905787 5.109666987168474 10.0
  vertex 24.767844616846848 6.661905247766903 10.0
 endloop
endfacet
facet normal 0.0 0.0 1.0
 outer loop
  vertex 42.85714285714282 0.0 10.0
  vertex 38.13020974910776 6.955717742169 10.0
  vertex 35.71428571428564 0.0 10.0
 endloop
endfacet
facet normal 0.0 0.0 1.0
 outer loop
  vertex 38.13020974910776 6.955717742169 10.0
  vertex 31.734152771905787 5.109666987168474 10.0
  vertex 35.71428571428564 0.0 10.0
 endloop
endfacet
facet normal 0.0 -0.0 1.0
 outer loop
  vertex 42.85714285714282 0.0 10.0
  vertex 44.54209983550056 5.546639612448441 10.0
  vertex 38.13020974910776 6.955717742169 10.0
 endloop
endfacet
facet normal 0.0 0.0 1.0
 outer loop
  vertex 50.0 15.000000000000014 10.0
  vertex 43.74602380276204 11.589100628240047 10.0
  vertex 50.0 7.500000000000009 10.0
 endloop
endfacet
facet normal 0.0 0.0 1.0
 outer loop
  vertex 43.74602380276204 11.589100628240047 10.0
  vertex 44.54209983550056 5.546639612448441 10.0
  vertex 50.0 7.500000000000009 10.0
 endloop
endfacet
facet normal 0.0 0.0 1.0
 outer loop
  vertex 50.0 22.500000000000043 10.0
  vertex 43.56822038657272 18.787935457719296 10.0
  vertex 50.0 15.000000000000014 10.0
 endloop
endfacet
facet normal 0.0 0.0 1.0
 outer loop
  vertex 50.0 15.000000000000014 10.0
  vertex 43.56822038657272 18.787935457719296 10.0
  vertex 43.74602380276204 11.589100628240047 10.0
 endloop
endfacet
facet normal 0.0 0.0 1.0
 outer loop
  vertex 50.0 30.000000000000078 10.0
  vertex 43.51851467137888 26.22721532192164 10.0
  vertex 50.0 22.500000000000043 10.0
 endloop
endfacet
facet normal 0.0 0.0 1.0
 outer loop
  vertex 43.51851467137888 26.22721532192164 10.0
  vertex 43.56822038657272 18.787935457719296 10.0
  vertex 50.0 22.500000000000043 10.0
 endloop
endfacet
facet normal 0.0 0.0 1.0
 outer loop
  vertex 50.0 37.50000000000007 10.0
  vertex 43.45585278110673 33.66476221873047 10.0
  vertex 50.0 30.000000000000078 10.0
 endloop
endfacet
facet normal 0.0 0.0 1.0
 outer loop
  vertex 50.0 30.000000000000078 10.0
  vertex 43.45585278110673 33.66476221873047 10.0
  vertex 43.51851467137888 26.22721532192164 10.0
 endloop
endfacet
facet normal 0.0 0.0 1.0
 outer loop
  vertex 50.0 45.00000000000004 10.0
  vertex 43.52011626487667 41.07967232217754 10.0
  vertex 50.0 37.50000000000007 10.0
 endloop
endfacet
facet normal 0.0 0.0 1.0
 outer loop
  vertex 43.52011626487667 41.07967232217754 10.0
  vertex 43.45585278110673 33.66476221873047 10.0
  vertex 50.0 37.50000000000007 10.0
 endloop
endfacet
facet normal 0.0 0.0 1.0
 outer loop
  vertex 50.0 52.50000000000002 10.0
  vertex 42.904240067602785 48.859271065307865 10.0
  vertex 50.0 45.00000000000004 10.0
 endloop
endfacet
facet normal 0.0 0.0 1.0
 outer loop
  vertex 50.0 45.00000000000004 10.0
  vertex 42.904240067602785 48.859271065307865 10.0
  vertex 43.52011626487667 41.07967232217754 10.0
 endloop
endfacet
facet normal 0.0 0.0 1.0
 outer loop
  vertex 50.0 52.50000000000002 10.0
  vertex 44.87653646371217 54.85348279797074 10.0
  vertex 42.904240067602785 48.859271065307865 10.0
 endloop
endfacet
facet normal -0.0 0.0 1.0
 outer loop
  vertex 35.71428571428575 60.0 10.0
  vertex 39.19435761671745 54.61344652156422 10.0
  vertex 42.85714285714287 60.0 10.0
 endloop
endfacet
facet normal 0.0 0.0 1.0
 outer loop
  vertex 39.19435761671745 54.61344652156422 10.0
  vertex 44.87653646371217 54.85348279797074 10.0
  vertex 42.85714285714287 60.0 10.0
 endloop
endfacet
facet normal -0.0 0.0 1.0
 outer loop
  vertex 28.571428571428633 60.0 10.0
  vertex 32.31608484778236 54.54118788567457 10.0
  vertex 35.71428571428575 60.0 10.0
 endloop
endfacet
facet normal 0.0 0.0 1.0
 outer loop
  vertex 35.71428571428575 60.0 10.0
  vertex 32.31608484778236 54.54118788567457 10.0
  vertex 39.19435761671745 54.61344652156422 10.0
 endloop
endfacet
facet normal -0.0 0.0 1.0
 outer loop
  vertex 21.428571428571516 60.0 10.0
  vertex 24.769572909770584 53.226677386317014 10.0
  vertex 28.571428571428633 60.0 10.0
 endloop
endfacet
facet normal 0.0 0.0 1.0
 outer loop
  vertex 24.769572909770584 53.226677386317014 10.0
  vertex 32.31608484778236 54.54118788567457 10.0
  vertex 28.571428571428633 60.0 10.0
 endloop
endfacet
facet normal -0.0 0.0 1.0
 outer loop
  vertex 14.285714285714363 60.0 10.0
  vertex 17.89657789658162 55.056732899160025 10.0
  vertex 21.428571428571516 60.0 10.0
 endloop
endfacet
facet normal 0.0 0.0 1.0
 outer loop
  vertex 21.428571428571516 60.0 10.0
  vertex 17.89657789658162 55.056732899160025 10.0
  vertex 24.769572909770584 53.226677386317014 10.0
 endloop
endfacet
facet normal -0.0 0.0 1.0
 outer loop
  vertex 7.142857142857181 60.0 10.0
  vertex 11.104454578574938 53.573928831304556 10.0
  vertex 14.285714285714363 60.0 10.0
 endloop
endfacet
facet normal 0.0 0.0 1.0
 outer loop
  vertex 11.104454578574938 53.573928831304556 10.0
  vertex 17.89657789658162 55.056732899160025 10.0
  vertex 14.285714285714363 60.0 10.0
 endloop
endfacet
facet normal 0.0 0.0 1.0
 outer loop
  vertex 7.142857142857181 60.0 10.0
  vertex 5.136141524565161 54.75979718748897 10.0
  vertex 11.104454578574938 53.573928831304556 10.0
 endloop
endfacet
facet normal 0.0 0.0 1.0
 outer loop
  vertex 0.0 44.999999999999986 10.0
  vertex 5.767458897742021 48.69774272734654 10.0
  vertex 0.0 52.49999999999999 10.0
 endloop
endfacet
facet normal 0.0 0.0 1.0
 outer loop
  vertex 5.767458897742021 48.69774272734654 10.0
  vertex 5.136141524565161 54.75979718748897 10.0
  vertex 0.0 52.49999999999999 10.0
 endloop
endfacet
facet normal 0.0 0.0 1.0
 outer loop
  vertex 0.0 37.49999999999996 10.0
  vertex 6.112894327678973 41.113098106028616 10.0
  vertex 0.0 44.999999999999986 10.0
 endloop
endfacet
facet normal -0.0 0.0 1.0
 outer loop
  vertex 0.0 44.999999999999986 10.0
  vertex 6.112894327678973 41.113098106028616 10.0
  vertex 5.767458897742021 48.69774272734654 10.0
 endloop
endfacet
facet normal 0.0 0.0 1.0
 outer loop
  vertex 0.0 29.999999999999922 10.0
  vertex 6.401396425621787 33.72236385161839 10.0
  vertex 0.0 37.49999999999996 10.0
 endloop
endfacet
facet normal 0.0 0.0 1.0
 outer loop
  vertex 6.401396425621787 33.72236385161839 10.0
  vertex 6.112894327678973 41.113098106028616 10.0
  vertex 0.0 37.49999999999996 10.0
 endloop
endfacet
facet normal 0.0 0.0 1.0
 outer loop
  vertex 0.0 22.49999999999993 10.0
  vertex 6.2745968566883725 26.228306295591054 10.0
  vertex 0.0 29.999999999999922 10.0
 endloop
endfacet
facet normal -0.0 0.0 1.0
 outer loop
  vertex 0.0 29.999999999999922 10.0
  vertex 6.2745968566883725 26.228306295591054 10.0
  vertex 6.401396425621787 33.72236385161839 10.0
 endloop
endfacet
facet normal 0.0 0.0 1.0
 outer loop
  vertex 0.0 14.999999999999957 10.0
  vertex 6.336846449444543 18.786866250129194 10.0
  vertex 0.0 22.49999999999993 10.0
 endloop
endfacet
facet normal 0.0 0.0 1.0
 outer loop
  vertex 6.336846449444543 18.786866250129194 10.0
  vertex 6.2745968566883725 26.228306295591054 10.0
  vertex 0.0 22.49999999999993 10.0
 endloop
endfacet
facet normal 0.0 0.0 1.0
 outer loop
  vertex 0.0 7.499999999999979 10.0
  vertex 5.784282778817698 11.34427927662474 10.0
  vertex 0.0 14.999999999999957 10.0
 endloop
endfacet
facet normal -0.0 0.0 1.0
 outer loop
  vertex 0.0 14.999999999999957 10.0
  vertex 5.784282778817698 11.34427927662474 10.0
  vertex 6.336846449444543 18.786866250129194 10.0
 endloop
endfacet
facet normal -0.0 0.0 1.0
 outer loop
  vertex 0.0 7.499999999999979 10.0
  vertex 5.163797026075432 5.266541385377959 10.0
  vertex 5.784282778817698 11.34427927662474 10.0
 endloop
endfacet
facet normal 0.0 0.0 1.0
 outer loop
  vertex 24.431506100784564 14.827534084302915 10.0
  vertex 17.92033227752572 11.41533223157047 10.0
  vertex 24.767844616846848 6.661905247766903 10.0
 endloop
endfacet
facet normal 0.0 -0.0 1.0
 outer loop
  vertex 24.767844616846848 6.661905247766903 10.0
  vertex 31.032187296900958 11.318989608903152 10.0
  vertex 24.431506100784564 14.827534084302915 10.0
 endloop
endfacet
facet normal 0.0 0.0 1.0
 outer loop
  vertex 17.92033227752572 11.41533223157047 10.0
  vertex 17.883814697168347 4.907386507600901 10.0
  vertex 24.767844616846848 6.661905247766903 10.0
 endloop
endfacet
facet normal -0.0 0.0 1.0
 outer loop
  vertex 24.767844616846848 6.661905247766903 10.0
  vertex 31.734152771905787 5.109666987168474 10.0
  vertex 31.032187296900958 11.318989608903152 10.0
 endloop
endfacet
facet normal 0.0 0.0 1.0
 outer loop
  vertex 24.769572909770584 53.226677386317014 10.0
  vertex 17.894576280276702 48.48305827817855 10.0
  vertex 24.334716081257145 44.87641556348136 10.0
 endloop
endfacet
facet normal 0.0 0.0 1.0
 outer loop
  vertex 24.334716081257145 44.87641556348136 10.0
  vertex 30.78022302334236 48.06834059766087 10.0
  vertex 24.769572909770584 53.226677386317014 10.0
 endloop
endfacet
facet normal 0.0 0.0 1.0
 outer loop
  vertex 24.769572909770584 53.226677386317014 10.0
  vertex 17.89657789658162 55.056732899160025 10.0
  vertex 17.894576280276702 48.48305827817855 10.0
 endloop
endfacet
facet normal 0.0 -0.0 1.0
 outer loop
  vertex 30.78022302334236 48.06834059766087 10.0
  vertex 32.31608484778236 54.54118788567457 10.0
  vertex 24.769572909770584 53.226677386317014 10.0
 endloop
endfacet
facet normal 0.0 0.0 1.0
 outer loop
  vertex 43.51851467137888 26.22721532192164 10.0
  vertex 37.132563965748375 22.437827216969463 10.0
  vertex 43.56822038657272 18.787935457719296 10.0
 endloop
endfacet
facet normal 0.0 0.0 1.0
 outer loop
  vertex 43.51851467137888 26.22721532192164 10.0
  vertex 37.05861649080758 29.903454509069974 10.0
  vertex 37.132563965748375 22.437827216969463 10.0
 endloop
endfacet
facet normal 0.0 0.0 1.0
 outer loop
  vertex 43.51851467137888 26.22721532192164 10.0
  vertex 43.45585278110673 33.66476221873047 10.0
  vertex 37.05861649080758 29.903454509069974 10.0
 endloop
endfacet
facet normal 0.0 -0.0 1.0
 outer loop
  vertex 6.401396425621787 33.72236385161839 10.0
  vertex 12.239284812960637 37.215094472344006 10.0
  vertex 6.112894327678973 41.113098106028616 10.0
 endloop
endfacet
facet normal 0.0 0.0 1.0
 outer loop
  vertex 6.2745968566883725 26.228306295591054 10.0
  vertex 12.129115512963132 29.879610706679784 10.0
  vertex 6.401396425621787 33.72236385161839 10.0
 endloop
endfacet
facet normal 0.0 -0.0 1.0
 outer loop
  vertex 12.129115512963132 29.879610706679784 10.0
  vertex 12.239284812960637 37.215094472344006 10.0
  vertex 6.401396425621787 33.72236385161839 10.0
 endloop
endfacet
facet normal 0.0 0.0 1.0
 outer loop
  vertex 43.52011626487667 41.07967232217754 10.0
  vertex 37.03134786834239 37.25134659387841 10.0
  vertex 43.45585278110673 33.66476221873047 10.0
 endloop
endfacet
facet normal 0.0 0.0 1.0
 outer loop
  vertex 36.91457078618236 44.269313856356874 10.0
  vertex 37.03134786834239 37.25134659387841 10.0
  vertex 43.52011626487667 41.07967232217754 10.0
 endloop
endfacet
facet normal 0.0 0.0 1.0
 outer loop
  vertex 43.52011626487667 41.07967232217754 10.0
  vertex 42.904240067602785 48.859271065307865 10.0
  vertex 36.91457078618236 44.269313856356874 10.0
 endloop
endfacet
facet normal 0.0 -0.0 1.0
 outer loop
  vertex 6.336846449444543 18.786866250129194 10.0
  vertex 12.071820170090742 22.433803441561885 10.0
  vertex 6.2745968566883725 26.228306295591054 10.0
 endloop
endfacet
facet normal 0.0 0.0 1.0
 outer loop
  vertex 5.784282778817698 11.34427927662474 10.0
  vertex 11.854119615660712 14.865926040382142 10.0
  vertex 6.336846449444543 18.786866250129194 10.0
 endloop
endfacet
facet normal 0.0 -0.0 1.0
 outer loop
  vertex 11.854119615660712 14.865926040382142 10.0
  vertex 12.071820170090742 22.433803441561885 10.0
  vertex 6.336846449444543 18.786866250129194 10.0
 endloop
endfacet
facet normal 0.0 0.0 1.0
 outer loop
  vertex 43.56822038657272 18.787935457719296 10.0
  vertex 37.25356527332531 15.082572576820695 10.0
  vertex 43.74602380276204 11.589100628240047 10.0
 endloop
endfacet
facet normal 0.0 0.0 1.0
 outer loop
  vertex 37.25356527332531 15.082572576820695 10.0
  vertex 38.13020974910776 6.955717742169 10.0
  vertex 43.74602380276204 11.589100628240047 10.0
 endloop
endfacet
facet normal -0.0 0.0 1.0
 outer loop
  vertex 38.13020974910776 6.955717742169 10.0
  vertex 44.54209983550056 5.546639612448441 10.0
  vertex 43.74602380276204 11.589100628240047 10.0
 endloop
endfacet
facet normal 0.0 -0.0 1.0
 outer loop
  vertex 6.112894327678973 41.113098106028616 10.0
  vertex 11.827677634824184 44.99652129978353 10.0
  vertex 5.767458897742021 48.69774272734654 10.0
 endloop
endfacet
facet normal -0.0 0.0 1.0
 outer loop
  vertex 5.767458897742021 48.69774272734654 10.0
  vertex 11.827677634824184 44.99652129978353 10.0
  vertex 11.104454578574938 53.573928831304556 10.0
 endloop
endfacet
facet normal 0.0 0.0 1.0
 outer loop
  vertex 11.104454578574938 53.573928831304556 10.0
  vertex 5.136141524565161 54.75979718748897 10.0
  vertex 5.767458897742021 48.69774272734654 10.0
 endloop
endfacet
facet normal 0.0 -0.0 1.0
 outer loop
  vertex 42.904240067602785 48.859271065307865 10.0
  vertex 44.87653646371217 54.85348279797074 10.0
  vertex 39.19435761671745 54.61344652156422 10.0
 endloop
endfacet
facet normal 0.0 0.0 1.0
 outer loop
  vertex 39.19435761671745 54.61344652156422 10.0
  vertex 36.262620286380596 49.998510315919 10.0
  vertex 42.904240067602785 48.859271065307865 10.0
 endloop
endfacet
facet normal -0.0 0.0 1.0
 outer loop
  vertex 32.31608484778236 54.54118788567457 10.0
  vertex 36.262620286380596 49.998510315919 10.0
  vertex 39.19435761671745 54.61344652156422 10.0
 endloop
endfacet
facet normal 0.0 0.0 1.0
 outer loop
  vertex 17.92033227752572 11.41533223157047 10.0
  vertex 11.854119615660712 14.865926040382142 10.0
  vertex 11.016610877183558 6.459695058667144 10.0
 endloop
endfacet
facet normal -0.0 0.0 1.0
 outer loop
  vertex 11.016610877183558 6.459695058667144 10.0
  vertex 17.883814697168347 4.907386507600901 10.0
  vertex 17.92033227752572 11.41533223157047 10.0
 endloop
endfacet
facet normal 0.0 -0.0 1.0
 outer loop
  vertex 11.016610877183558 6.459695058667144 10.0
  vertex 11.854119615660712 14.865926040382142 10.0
  vertex 5.784282778817698 11.34427927662474 10.0
 endloop
endfacet
facet normal 0.0 0.0 1.0
 outer loop
  vertex 5.784282778817698 11.34427927662474 10.0
  vertex 5.163797026075432 5.266541385377959 10.0
  vertex 11.016610877183558 6.459695058667144 10.0
 endloop
endfacet
facet normal 0.0 0.0 1.0
 outer loop
  vertex 37.132563965748375 22.437827216969463 10.0
  vertex 37.25356527332531 15.082572576820695 10.0
  vertex 43.56822038657272 18.787935457719296 10.0
 endloop
endfacet
facet normal 0.0 0.0 1.0
 outer loop
  vertex 37.05861649080758 29.903454509069974 10.0
  vertex 30.691858088333294 26.133354484595035 10.0
  vertex 37.132563965748375 22.437827216969463 10.0
 endloop
endfacet
facet normal 0.0 0.0 1.0
 outer loop
  vertex 30.691858088333294 26.133354484595035 10.0
  vertex 30.808020034417865 18.59055548124004 10.0
  vertex 37.132563965748375 22.437827216969463 10.0
 endloop
endfacet
facet normal -0.0 0.0 1.0
 outer loop
  vertex 30.808020034417865 18.59055548124004 10.0
  vertex 37.25356527332531 15.082572576820695 10.0
  vertex 37.132563965748375 22.437827216969463 10.0
 endloop
endfacet
facet normal 0.0 0.0 1.0
 outer loop
  vertex 37.05861649080758 29.903454509069974 10.0
  vertex 30.625147405153903 33.58161681329163 10.0
  vertex 30.691858088333294 26.133354484595035 10.0
 endloop
endfacet
facet normal 0.0 0.0 1.0
 outer loop
  vertex 37.05861649080758 29.903454509069974 10.0
  vertex 37.03134786834239 37.25134659387841 10.0
  vertex 30.625147405153903 33.58161681329163 10.0
 endloop
endfacet
facet normal 0.0 0.0 1.0
 outer loop
  vertex 43.45585278110673 33.66476221873047 10.0
  vertex 37.03134786834239 37.25134659387841 10.0
  vertex 37.05861649080758 29.903454509069974 10.0
 endloop
endfacet
facet normal 0.0 0.0 1.0
 outer loop
  vertex 30.625147405153903 33.58161681329163 10.0
  vertex 24.25296337059647 29.84915364513001 10.0
  vertex 30.691858088333294 26.133354484595035 10.0
 endloop
endfacet
facet normal 0.0 0.0 1.0
 outer loop
  vertex 24.25296337059647 29.84915364513001 10.0
  vertex 24.29579167133174 22.421216549340222 10.0
  vertex 30.691858088333294 26.133354484595035 10.0
 endloop
endfacet
facet normal -0.0 0.0 1.0
 outer loop
  vertex 24.29579167133174 22.421216549340222 10.0
  vertex 30.808020034417865 18.59055548124004 10.0
  vertex 30.691858088333294 26.133354484595035 10.0
 endloop
endfacet
facet normal 0.0 0.0 1.0
 outer loop
  vertex 30.625147405153903 33.58161681329163 10.0
  vertex 24.222930279214854 37.23513743164986 10.0
  vertex 24.25296337059647 29.84915364513001 10.0
 endloop
endfacet
facet normal 0.0 0.0 1.0
 outer loop
  vertex 30.625147405153903 33.58161681329163 10.0
  vertex 30.6137834819271 41.00925984364396 10.0
  vertex 24.222930279214854 37.23513743164986 10.0
 endloop
endfacet
facet normal 0.0 -0.0 1.0
 outer loop
  vertex 30.625147405153903 33.58161681329163 10.0
  vertex 37.03134786834239 37.25134659387841 10.0
  vertex 30.6137834819271 41.00925984364396 10.0
 endloop
endfacet
facet normal 0.0 0.0 1.0
 outer loop
  vertex 24.222930279214854 37.23513743164986 10.0
  vertex 17.91961529392752 33.53896693870133 10.0
  vertex 24.25296337059647 29.84915364513001 10.0
 endloop
endfacet
facet normal 0.0 0.0 1.0
 outer loop
  vertex 24.25296337059647 29.84915364513001 10.0
  vertex 17.867979518489733 26.139129240262058 10.0
  vertex 24.29579167133174 22.421216549340222 10.0
 endloop
endfacet
facet normal 0.0 0.0 1.0
 outer loop
  vertex 24.25296337059647 29.84915364513001 10.0
  vertex 17.91961529392752 33.53896693870133 10.0
  vertex 17.867979518489733 26.139129240262058 10.0
 endloop
endfacet
facet normal 0.0 0.0 1.0
 outer loop
  vertex 30.6137834819271 41.00925984364396 10.0
  vertex 24.334716081257145 44.87641556348136 10.0
  vertex 24.222930279214854 37.23513743164986 10.0
 endloop
endfacet
facet normal 0.0 0.0 1.0
 outer loop
  vertex 24.334716081257145 44.87641556348136 10.0
  vertex 17.847396911711837 40.89620538349893 10.0
  vertex 24.222930279214854 37.23513743164986 10.0
 endloop
endfacet
facet normal 0.0 0.0 1.0
 outer loop
  vertex 17.847396911711837 40.89620538349893 10.0
  vertex 17.91961529392752 33.53896693870133 10.0
  vertex 24.222930279214854 37.23513743164986 10.0
 endloop
endfacet
facet normal 0.0 0.0 1.0
 outer loop
  vertex 17.867979518489733 26.139129240262058 10.0
  vertex 17.87994696649107 18.752688842304853 10.0
  vertex 24.29579167133174 22.421216549340222 10.0
 endloop
endfacet
facet normal -0.0 0.0 1.0
 outer loop
  vertex 17.87994696649107 18.752688842304853 10.0
  vertex 24.431506100784564 14.827534084302915 10.0
  vertex 24.29579167133174 22.421216549340222 10.0
 endloop
endfacet
facet normal 0.0 -0.0 1.0
 outer loop
  vertex 24.431506100784564 14.827534084302915 10.0
  vertex 30.808020034417865 18.59055548124004 10.0
  vertex 24.29579167133174 22.421216549340222 10.0
 endloop
endfacet
facet normal 0.0 -0.0 1.0
 outer loop
  vertex 30.6137834819271 41.00925984364396 10.0
  vertex 30.78022302334236 48.06834059766087 10.0
  vertex 24.334716081257145 44.87641556348136 10.0
 endloop
endfacet
facet normal 0.0 0.0 1.0
 outer loop
  vertex 30.6137834819271 41.00925984364396 10.0
  vertex 36.91457078618236 44.269313856356874 10.0
  vertex 30.78022302334236 48.06834059766087 10.0
 endloop
endfacet
facet normal -0.0 0.0 1.0
 outer loop
  vertex 30.6137834819271 41.00925984364396 10.0
  vertex 37.03134786834239 37.25134659387841 10.0
  vertex 36.91457078618236 44.269313856356874 10.0
 endloop
endfacet
facet normal 0.0 0.0 1.0
 outer loop
  vertex 17.867979518489733 26.139129240262058 10.0
  vertex 12.071820170090742 22.433803441561885 10.0
  vertex 17.87994696649107 18.752688842304853 10.0
 endloop
endfacet
facet normal 0.0 0.0 1.0
 outer loop
  vertex 17.91961529392752 33.53896693870133 10.0
  vertex 12.129115512963132 29.879610706679784 10.0
  vertex 17.867979518489733 26.139129240262058 10.0
 endloop
endfacet
facet normal 0.0 0.0 1.0
 outer loop
  vertex 17.867979518489733 26.139129240262058 10.0
  vertex 12.129115512963132 29.879610706679784 10.0
  vertex 12.071820170090742 22.433803441561885 10.0
 endloop
endfacet
facet normal 0.0 0.0 1.0
 outer loop
  vertex 17.87994696649107 18.752688842304853 10.0
  vertex 17.92033227752572 11.41533223157047 10.0
  vertex 24.431506100784564 14.827534084302915 10.0
 endloop
endfacet
facet normal 0.0 0.0 1.0
 outer loop
  vertex 17.87994696649107 18.752688842304853 10.0
  vertex 11.854119615660712 14.865926040382142 10.0
  vertex 17.92033227752572 11.41533223157047 10.0
 endloop
endfacet
facet normal 0.0 0.0 1.0
 outer loop
  vertex 17.87994696649107 18.752688842304853 10.0
  vertex 12.071820170090742 22.433803441561885 10.0
  vertex 11.854119615660712 14.865926040382142 10.0
 endloop
endfacet
facet normal 0.0 0.0 1.0
 outer loop
  vertex 24.334716081257145 44.87641556348136 10.0
  vertex 17.894576280276702 48.48305827817855 10.0
  vertex 17.847396911711837 40.89620538349893 10.0
 endloop
endfacet
facet normal 0.0 0.0 1.0
 outer loop
  vertex 17.894576280276702 48.48305827817855 10.0
  vertex 11.827677634824184 44.99652129978353 10.0
  vertex 17.847396911711837 40.89620538349893 10.0
 endloop
endfacet
facet normal 0.0 0.0 1.0
 outer loop
  vertex 17.847396911711837 40.89620538349893 10.0
  vertex 12.239284812960637 37.215094472344006 10.0
  vertex 17.91961529392752 33.53896693870133 10.0
 endloop
endfacet
facet normal 0.0 0.0 1.0
 outer loop
  vertex 17.847396911711837 40.89620538349893 10.0
  vertex 11.827677634824184 44.99652129978353 10.0
  vertex 12.239284812960637 37.215094472344006 10.0
 endloop
endfacet
facet normal 0.0 0.0 1.0
 outer loop
  vertex 11.104454578574938 53.573928831304556 10.0
  vertex 11.827677634824184 44.99652129978353 10.0
  vertex 17.894576280276702 48.48305827817855 10.0
 endloop
endfacet
facet normal 0.0 -0.0 1.0
 outer loop
  vertex 17.894576280276702 48.48305827817855 10.0
  vertex 17.89657789658162 55.056732899160025 10.0
  vertex 11.104454578574938 53.573928831304556 10.0
 endloop
endfacet
facet normal 0.0 0.0 1.0
 outer loop
  vertex 31.032187296900958 11.318989608903152 10.0
  vertex 30.808020034417865 18.59055548124004 10.0
  vertex 24.431506100784564 14.827534084302915 10.0
 endloop
endfacet
facet normal 0.0 -0.0 1.0
 outer loop
  vertex 31.032187296900958 11.318989608903152 10.0
  vertex 37.25356527332531 15.082572576820695 10.0
  vertex 30.808020034417865 18.59055548124004 10.0
 endloop
endfacet
facet normal -0.0 0.0 1.0
 outer loop
  vertex 31.032187296900958 11.318989608903152 10.0
  vertex 38.13020974910776 6.955717742169 10.0
  vertex 37.25356527332531 15.082572576820695 10.0
 endloop
endfacet
facet normal 0.0 0.0 1.0
 outer loop
  vertex 31.032187296900958 11.318989608903152 10.0
  vertex 31.734152771905787 5.109666987168474 10.0
  vertex 38.13020974910776 6.955717742169 10.0
 endloop
endfacet
facet normal 0.0 0.0 1.0
 outer loop
  vertex 36.91457078618236 44.269313856356874 10.0
  vertex 36.262620286380596 49.998510315919 10.0
  vertex 30.78022302334236 48.06834059766087 10.0
 endloop
endfacet
facet normal 0.0 0.0 1.0
 outer loop
  vertex 30.78022302334236 48.06834059766087 10.0
  vertex 36.262620286380596 49.998510315919 10.0
  vertex 32.31608484778236 54.54118788567457 10.0
 endloop
endfacet
facet normal 0.0 0.0 1.0
 outer loop
  vertex 12.239284812960637 37.215094472344006 10.0
  vertex 11.827677634824184 44.99652129978353 10.0
  vertex 6.112894327678973 41.113098106028616 10.0
 endloop
endfacet
facet normal 0.0 0.0 1.0
 outer loop
  vertex 42.904240067602785 48.859271065307865 10.0
  vertex 36.262620286380596 49.998510315919 10.0
  vertex 36.91457078618236 44.269313856356874 10.0
 endloop
endfacet
facet normal 0.0 -0.0 1.0
 outer loop
  vertex 12.071820170090742 22.433803441561885 10.0
  vertex 12.129115512963132 29.879610706679784 10.0
  vertex 6.2745968566883725 26.228306295591054 10.0
 endloop
endfacet
facet normal 0.0 0.0 1.0
 outer loop
  vertex 17.91961529392752 33.53896693870133 10.0
  vertex 12.239284812960637 37.215094472344006 10.0
  vertex 12.129115512963132 29.879610706679784 10.0
 endloop
endfacet
endsolid
